<mxfile host="app.diagrams.net" modified="2024-01-15T00:09:39.872Z" agent="Mozilla/5.0 (X11; Linux x86_64; rv:121.0) Gecko/20100101 Firefox/121.0" etag="D02aZiWLJNzsJt-cThN-" version="22.1.18" type="github">
  <diagram id="C5RBs43oDa-KdzZeNtuy" name="Page-1">
    <mxGraphModel dx="1195" dy="635" grid="1" gridSize="10" guides="1" tooltips="1" connect="1" arrows="1" fold="1" page="1" pageScale="1" pageWidth="827" pageHeight="1169" math="0" shadow="0">
      <root>
        <mxCell id="WIyWlLk6GJQsqaUBKTNV-0" />
        <mxCell id="WIyWlLk6GJQsqaUBKTNV-1" parent="WIyWlLk6GJQsqaUBKTNV-0" />
        <mxCell id="wCRdzUAUGNFTLwiFJrkR-3" style="edgeStyle=orthogonalEdgeStyle;rounded=0;orthogonalLoop=1;jettySize=auto;html=1;exitX=0.5;exitY=1;exitDx=0;exitDy=0;entryX=0.5;entryY=0;entryDx=0;entryDy=0;" edge="1" parent="WIyWlLk6GJQsqaUBKTNV-1" source="wCRdzUAUGNFTLwiFJrkR-1" target="wCRdzUAUGNFTLwiFJrkR-2">
          <mxGeometry relative="1" as="geometry" />
        </mxCell>
        <mxCell id="wCRdzUAUGNFTLwiFJrkR-1" value="Begin" style="ellipse;whiteSpace=wrap;html=1;" vertex="1" parent="WIyWlLk6GJQsqaUBKTNV-1">
          <mxGeometry x="180" y="70" width="80" height="50" as="geometry" />
        </mxCell>
        <mxCell id="wCRdzUAUGNFTLwiFJrkR-6" style="edgeStyle=orthogonalEdgeStyle;rounded=0;orthogonalLoop=1;jettySize=auto;html=1;exitX=0.5;exitY=1;exitDx=0;exitDy=0;entryX=0.5;entryY=0;entryDx=0;entryDy=0;" edge="1" parent="WIyWlLk6GJQsqaUBKTNV-1" source="wCRdzUAUGNFTLwiFJrkR-2" target="wCRdzUAUGNFTLwiFJrkR-4">
          <mxGeometry relative="1" as="geometry" />
        </mxCell>
        <mxCell id="wCRdzUAUGNFTLwiFJrkR-2" value="Read joint angles" style="rounded=0;whiteSpace=wrap;html=1;" vertex="1" parent="WIyWlLk6GJQsqaUBKTNV-1">
          <mxGeometry x="160" y="160" width="120" height="60" as="geometry" />
        </mxCell>
        <mxCell id="wCRdzUAUGNFTLwiFJrkR-11" style="edgeStyle=orthogonalEdgeStyle;rounded=0;orthogonalLoop=1;jettySize=auto;html=1;exitX=0.5;exitY=1;exitDx=0;exitDy=0;" edge="1" parent="WIyWlLk6GJQsqaUBKTNV-1" source="wCRdzUAUGNFTLwiFJrkR-4" target="wCRdzUAUGNFTLwiFJrkR-10">
          <mxGeometry relative="1" as="geometry" />
        </mxCell>
        <mxCell id="wCRdzUAUGNFTLwiFJrkR-4" value="Solve Forward Kinematics" style="shape=process;whiteSpace=wrap;html=1;backgroundOutline=1;" vertex="1" parent="WIyWlLk6GJQsqaUBKTNV-1">
          <mxGeometry x="160" y="260" width="120" height="60" as="geometry" />
        </mxCell>
        <mxCell id="wCRdzUAUGNFTLwiFJrkR-5" value="End" style="ellipse;whiteSpace=wrap;html=1;" vertex="1" parent="WIyWlLk6GJQsqaUBKTNV-1">
          <mxGeometry x="180" y="440" width="80" height="50" as="geometry" />
        </mxCell>
        <mxCell id="wCRdzUAUGNFTLwiFJrkR-12" style="edgeStyle=orthogonalEdgeStyle;rounded=0;orthogonalLoop=1;jettySize=auto;html=1;exitX=0.5;exitY=1;exitDx=0;exitDy=0;entryX=0.5;entryY=0;entryDx=0;entryDy=0;" edge="1" parent="WIyWlLk6GJQsqaUBKTNV-1" source="wCRdzUAUGNFTLwiFJrkR-10" target="wCRdzUAUGNFTLwiFJrkR-5">
          <mxGeometry relative="1" as="geometry" />
        </mxCell>
        <mxCell id="wCRdzUAUGNFTLwiFJrkR-10" value="Save Pose" style="rounded=0;whiteSpace=wrap;html=1;" vertex="1" parent="WIyWlLk6GJQsqaUBKTNV-1">
          <mxGeometry x="160" y="350" width="120" height="60" as="geometry" />
        </mxCell>
      </root>
    </mxGraphModel>
  </diagram>
</mxfile>
